%
M48
M72
T01C0.0150
T02C0.0335
T03C0.0400
T04C0.1575
%
T01
X4375Y13425
X4375Y13825
X4875Y13825
X4875Y13425
X11875Y13425
X11875Y13825
X12375Y13825
X12375Y13425
X13875Y13425
X13875Y13825
X14375Y13825
X14375Y13425
X21375Y13425
X21375Y13825
X21875Y13825
X21875Y13425
X23375Y13425
X23375Y13825
X23875Y13825
X23875Y13425
X30875Y13425
X30875Y13825
X31375Y13825
X31375Y13425
X32875Y13425
X32875Y13825
X33375Y13825
X33375Y13425
X40375Y13425
X40375Y13825
X40875Y13825
X40875Y13425
X40875Y35125
X40875Y35525
X40375Y35525
X40375Y35125
X33375Y35125
X33375Y35525
X32875Y35525
X32875Y35125
X31375Y35125
X31375Y35525
X30875Y35525
X30875Y35125
X23875Y35125
X23875Y35525
X23375Y35525
X23375Y35125
X21875Y35125
X21875Y35525
X21375Y35525
X21375Y35125
X14375Y35125
X14375Y35525
X13875Y35525
X13875Y35125
X12375Y35125
X12375Y35525
X11875Y35525
X11875Y35125
X4875Y35125
X4875Y35525
X4375Y35525
X4375Y35125
T02
X27375Y34734
X27375Y35916
X27375Y14216
X27375Y13034
T03
X36875Y10125
X36875Y17125
X36875Y31825
X36875Y38825
T04
X8375Y6975
X8375Y9275
X8375Y17975
X8375Y20275
X8375Y28675
X8375Y30975
X8375Y39675
X8375Y41975
X17875Y41975
X17875Y39675
X17875Y30975
X17875Y28675
X17875Y20275
X17875Y17975
X17875Y9275
X17875Y6975
X27375Y7975
X27375Y10275
X27375Y16975
X27375Y19275
X36875Y18975
X36875Y21275
X36875Y27625
X36875Y29925
X27375Y29675
X27375Y31975
X27375Y38675
X27375Y40975
X36875Y40675
X36875Y42975
X36875Y8225
X36875Y5925
M30
