G75*
%MOIN*%
%OFA0B0*%
%FSLAX25Y25*%
%IPPOS*%
%LPD*%
%AMOC8*
5,1,8,0,0,1.08239X$1,22.5*
%
%ADD10C,0.01500*%
%ADD11C,0.01100*%
D10*
X0001750Y0027750D02*
X0475750Y0027750D01*
X0424750Y0001750D02*
X0424750Y0512750D01*
X0475750Y0461750D02*
X0001750Y0461750D01*
X0027750Y0512750D02*
X0027750Y0001750D01*
X0001750Y0244750D02*
X0475750Y0244750D01*
D11*
X0488541Y0245733D02*
X0489852Y0241800D01*
X0491163Y0245733D01*
X0493834Y0244094D02*
X0497768Y0244094D01*
X0501136Y0244094D02*
X0502774Y0243439D01*
X0502775Y0243439D02*
X0502827Y0243416D01*
X0502878Y0243389D01*
X0502927Y0243359D01*
X0502974Y0243326D01*
X0503019Y0243290D01*
X0503061Y0243250D01*
X0503100Y0243208D01*
X0503136Y0243164D01*
X0503169Y0243117D01*
X0503199Y0243067D01*
X0503226Y0243016D01*
X0503249Y0242964D01*
X0503268Y0242910D01*
X0503284Y0242854D01*
X0503296Y0242798D01*
X0503304Y0242741D01*
X0503308Y0242684D01*
X0503309Y0242626D01*
X0503305Y0242569D01*
X0503298Y0242512D01*
X0503286Y0242455D01*
X0503271Y0242400D01*
X0503253Y0242345D01*
X0503230Y0242292D01*
X0503204Y0242241D01*
X0503175Y0242192D01*
X0503142Y0242144D01*
X0503106Y0242099D01*
X0503068Y0242057D01*
X0503026Y0242017D01*
X0502982Y0241980D01*
X0502935Y0241946D01*
X0502887Y0241915D01*
X0502836Y0241888D01*
X0502784Y0241864D01*
X0502730Y0241844D01*
X0502675Y0241828D01*
X0502619Y0241815D01*
X0502562Y0241806D01*
X0502504Y0241801D01*
X0502447Y0241800D01*
X0502938Y0245405D02*
X0502831Y0245451D01*
X0502722Y0245494D01*
X0502612Y0245534D01*
X0502500Y0245570D01*
X0502388Y0245602D01*
X0502274Y0245631D01*
X0502160Y0245657D01*
X0502045Y0245678D01*
X0501930Y0245697D01*
X0501813Y0245711D01*
X0501697Y0245722D01*
X0501580Y0245729D01*
X0501463Y0245733D01*
X0501463Y0245734D02*
X0501406Y0245733D01*
X0501348Y0245728D01*
X0501291Y0245719D01*
X0501235Y0245706D01*
X0501180Y0245690D01*
X0501126Y0245670D01*
X0501074Y0245646D01*
X0501023Y0245619D01*
X0500975Y0245588D01*
X0500928Y0245554D01*
X0500884Y0245517D01*
X0500842Y0245477D01*
X0500804Y0245435D01*
X0500768Y0245390D01*
X0500735Y0245342D01*
X0500706Y0245293D01*
X0500680Y0245242D01*
X0500657Y0245189D01*
X0500639Y0245134D01*
X0500624Y0245079D01*
X0500612Y0245022D01*
X0500605Y0244965D01*
X0500601Y0244908D01*
X0500602Y0244850D01*
X0500606Y0244793D01*
X0500614Y0244736D01*
X0500626Y0244680D01*
X0500642Y0244624D01*
X0500661Y0244570D01*
X0500684Y0244518D01*
X0500711Y0244467D01*
X0500741Y0244417D01*
X0500774Y0244370D01*
X0500810Y0244326D01*
X0500849Y0244284D01*
X0500891Y0244244D01*
X0500936Y0244208D01*
X0500983Y0244175D01*
X0501032Y0244145D01*
X0501083Y0244118D01*
X0501135Y0244095D01*
X0500644Y0242128D02*
X0500778Y0242082D01*
X0500913Y0242039D01*
X0501049Y0242000D01*
X0501186Y0241964D01*
X0501323Y0241932D01*
X0501462Y0241903D01*
X0501601Y0241877D01*
X0501741Y0241856D01*
X0501882Y0241837D01*
X0502022Y0241823D01*
X0502164Y0241812D01*
X0502305Y0241804D01*
X0502447Y0241801D01*
X0505988Y0242783D02*
X0505988Y0244750D01*
X0505990Y0244812D01*
X0505996Y0244873D01*
X0506005Y0244934D01*
X0506019Y0244994D01*
X0506036Y0245054D01*
X0506057Y0245112D01*
X0506082Y0245169D01*
X0506110Y0245224D01*
X0506141Y0245277D01*
X0506176Y0245328D01*
X0506214Y0245377D01*
X0506254Y0245423D01*
X0506298Y0245467D01*
X0506344Y0245507D01*
X0506393Y0245545D01*
X0506444Y0245580D01*
X0506497Y0245611D01*
X0506552Y0245639D01*
X0506609Y0245664D01*
X0506667Y0245685D01*
X0506727Y0245702D01*
X0506787Y0245716D01*
X0506848Y0245725D01*
X0506909Y0245731D01*
X0506971Y0245733D01*
X0508282Y0245733D01*
X0510695Y0244422D02*
X0510695Y0243111D01*
X0510696Y0243111D02*
X0510698Y0243040D01*
X0510704Y0242969D01*
X0510713Y0242899D01*
X0510727Y0242829D01*
X0510744Y0242760D01*
X0510765Y0242692D01*
X0510789Y0242626D01*
X0510817Y0242561D01*
X0510849Y0242497D01*
X0510884Y0242435D01*
X0510922Y0242375D01*
X0510963Y0242318D01*
X0511008Y0242262D01*
X0511055Y0242209D01*
X0511105Y0242159D01*
X0511158Y0242112D01*
X0511214Y0242067D01*
X0511271Y0242026D01*
X0511331Y0241988D01*
X0511393Y0241953D01*
X0511457Y0241921D01*
X0511522Y0241893D01*
X0511588Y0241869D01*
X0511656Y0241848D01*
X0511725Y0241831D01*
X0511795Y0241817D01*
X0511865Y0241808D01*
X0511936Y0241802D01*
X0512007Y0241800D01*
X0512078Y0241802D01*
X0512149Y0241808D01*
X0512219Y0241817D01*
X0512289Y0241831D01*
X0512358Y0241848D01*
X0512426Y0241869D01*
X0512492Y0241893D01*
X0512557Y0241921D01*
X0512621Y0241953D01*
X0512683Y0241988D01*
X0512743Y0242026D01*
X0512800Y0242067D01*
X0512856Y0242112D01*
X0512909Y0242159D01*
X0512959Y0242209D01*
X0513006Y0242262D01*
X0513051Y0242318D01*
X0513092Y0242375D01*
X0513130Y0242435D01*
X0513165Y0242497D01*
X0513197Y0242561D01*
X0513225Y0242626D01*
X0513249Y0242692D01*
X0513270Y0242760D01*
X0513287Y0242829D01*
X0513301Y0242899D01*
X0513310Y0242969D01*
X0513316Y0243040D01*
X0513318Y0243111D01*
X0513318Y0244422D01*
X0513316Y0244493D01*
X0513310Y0244564D01*
X0513301Y0244634D01*
X0513287Y0244704D01*
X0513270Y0244773D01*
X0513249Y0244841D01*
X0513225Y0244907D01*
X0513197Y0244972D01*
X0513165Y0245036D01*
X0513130Y0245098D01*
X0513092Y0245158D01*
X0513051Y0245215D01*
X0513006Y0245271D01*
X0512959Y0245324D01*
X0512909Y0245374D01*
X0512856Y0245421D01*
X0512800Y0245466D01*
X0512743Y0245507D01*
X0512683Y0245545D01*
X0512621Y0245580D01*
X0512557Y0245612D01*
X0512492Y0245640D01*
X0512426Y0245664D01*
X0512358Y0245685D01*
X0512289Y0245702D01*
X0512219Y0245716D01*
X0512149Y0245725D01*
X0512078Y0245731D01*
X0512007Y0245733D01*
X0511936Y0245731D01*
X0511865Y0245725D01*
X0511795Y0245716D01*
X0511725Y0245702D01*
X0511656Y0245685D01*
X0511588Y0245664D01*
X0511522Y0245640D01*
X0511457Y0245612D01*
X0511393Y0245580D01*
X0511331Y0245545D01*
X0511271Y0245507D01*
X0511214Y0245466D01*
X0511158Y0245421D01*
X0511105Y0245374D01*
X0511055Y0245324D01*
X0511008Y0245271D01*
X0510963Y0245215D01*
X0510922Y0245158D01*
X0510884Y0245098D01*
X0510849Y0245036D01*
X0510817Y0244972D01*
X0510789Y0244907D01*
X0510765Y0244841D01*
X0510744Y0244773D01*
X0510727Y0244704D01*
X0510713Y0244634D01*
X0510704Y0244564D01*
X0510698Y0244493D01*
X0510696Y0244422D01*
X0508282Y0241800D02*
X0506971Y0241800D01*
X0506909Y0241802D01*
X0506848Y0241808D01*
X0506787Y0241817D01*
X0506727Y0241831D01*
X0506667Y0241848D01*
X0506609Y0241869D01*
X0506552Y0241894D01*
X0506497Y0241922D01*
X0506444Y0241953D01*
X0506393Y0241988D01*
X0506344Y0242026D01*
X0506298Y0242066D01*
X0506254Y0242110D01*
X0506214Y0242156D01*
X0506176Y0242205D01*
X0506141Y0242256D01*
X0506110Y0242309D01*
X0506082Y0242364D01*
X0506057Y0242421D01*
X0506036Y0242479D01*
X0506019Y0242539D01*
X0506005Y0242599D01*
X0505996Y0242660D01*
X0505990Y0242721D01*
X0505988Y0242783D01*
X0516284Y0241800D02*
X0516284Y0245733D01*
X0518251Y0245733D01*
X0518251Y0245078D01*
X0520337Y0244422D02*
X0520337Y0242783D01*
X0520339Y0242721D01*
X0520345Y0242660D01*
X0520354Y0242599D01*
X0520368Y0242539D01*
X0520385Y0242479D01*
X0520406Y0242421D01*
X0520431Y0242364D01*
X0520459Y0242309D01*
X0520490Y0242256D01*
X0520525Y0242205D01*
X0520563Y0242156D01*
X0520603Y0242110D01*
X0520647Y0242066D01*
X0520693Y0242026D01*
X0520742Y0241988D01*
X0520793Y0241953D01*
X0520846Y0241922D01*
X0520901Y0241894D01*
X0520958Y0241869D01*
X0521016Y0241848D01*
X0521076Y0241831D01*
X0521136Y0241817D01*
X0521197Y0241808D01*
X0521258Y0241802D01*
X0521320Y0241800D01*
X0522959Y0241800D01*
X0522959Y0243767D02*
X0520337Y0243767D01*
X0520337Y0244422D02*
X0520339Y0244493D01*
X0520345Y0244564D01*
X0520354Y0244634D01*
X0520368Y0244704D01*
X0520385Y0244773D01*
X0520406Y0244841D01*
X0520430Y0244907D01*
X0520458Y0244972D01*
X0520490Y0245036D01*
X0520525Y0245098D01*
X0520563Y0245158D01*
X0520604Y0245215D01*
X0520649Y0245271D01*
X0520696Y0245324D01*
X0520746Y0245374D01*
X0520799Y0245421D01*
X0520855Y0245466D01*
X0520912Y0245507D01*
X0520972Y0245545D01*
X0521034Y0245580D01*
X0521098Y0245612D01*
X0521163Y0245640D01*
X0521229Y0245664D01*
X0521297Y0245685D01*
X0521366Y0245702D01*
X0521436Y0245716D01*
X0521506Y0245725D01*
X0521577Y0245731D01*
X0521648Y0245733D01*
X0521719Y0245731D01*
X0521790Y0245725D01*
X0521860Y0245716D01*
X0521930Y0245702D01*
X0521999Y0245685D01*
X0522067Y0245664D01*
X0522133Y0245640D01*
X0522198Y0245612D01*
X0522262Y0245580D01*
X0522324Y0245545D01*
X0522384Y0245507D01*
X0522441Y0245466D01*
X0522497Y0245421D01*
X0522550Y0245374D01*
X0522600Y0245324D01*
X0522647Y0245271D01*
X0522692Y0245215D01*
X0522733Y0245158D01*
X0522771Y0245098D01*
X0522806Y0245036D01*
X0522838Y0244972D01*
X0522866Y0244907D01*
X0522890Y0244841D01*
X0522911Y0244773D01*
X0522928Y0244704D01*
X0522942Y0244634D01*
X0522951Y0244564D01*
X0522957Y0244493D01*
X0522959Y0244422D01*
X0522959Y0243767D01*
X0522959Y0458800D02*
X0521320Y0458800D01*
X0521258Y0458802D01*
X0521197Y0458808D01*
X0521136Y0458817D01*
X0521076Y0458831D01*
X0521016Y0458848D01*
X0520958Y0458869D01*
X0520901Y0458894D01*
X0520846Y0458922D01*
X0520793Y0458953D01*
X0520742Y0458988D01*
X0520693Y0459026D01*
X0520647Y0459066D01*
X0520603Y0459110D01*
X0520563Y0459156D01*
X0520525Y0459205D01*
X0520490Y0459256D01*
X0520459Y0459309D01*
X0520431Y0459364D01*
X0520406Y0459421D01*
X0520385Y0459479D01*
X0520368Y0459539D01*
X0520354Y0459599D01*
X0520345Y0459660D01*
X0520339Y0459721D01*
X0520337Y0459783D01*
X0520337Y0461422D01*
X0520337Y0460767D02*
X0522959Y0460767D01*
X0522959Y0461422D01*
X0522957Y0461493D01*
X0522951Y0461564D01*
X0522942Y0461634D01*
X0522928Y0461704D01*
X0522911Y0461773D01*
X0522890Y0461841D01*
X0522866Y0461907D01*
X0522838Y0461972D01*
X0522806Y0462036D01*
X0522771Y0462098D01*
X0522733Y0462158D01*
X0522692Y0462215D01*
X0522647Y0462271D01*
X0522600Y0462324D01*
X0522550Y0462374D01*
X0522497Y0462421D01*
X0522441Y0462466D01*
X0522384Y0462507D01*
X0522324Y0462545D01*
X0522262Y0462580D01*
X0522198Y0462612D01*
X0522133Y0462640D01*
X0522067Y0462664D01*
X0521999Y0462685D01*
X0521930Y0462702D01*
X0521860Y0462716D01*
X0521790Y0462725D01*
X0521719Y0462731D01*
X0521648Y0462733D01*
X0521577Y0462731D01*
X0521506Y0462725D01*
X0521436Y0462716D01*
X0521366Y0462702D01*
X0521297Y0462685D01*
X0521229Y0462664D01*
X0521163Y0462640D01*
X0521098Y0462612D01*
X0521034Y0462580D01*
X0520972Y0462545D01*
X0520912Y0462507D01*
X0520855Y0462466D01*
X0520799Y0462421D01*
X0520746Y0462374D01*
X0520696Y0462324D01*
X0520649Y0462271D01*
X0520604Y0462215D01*
X0520563Y0462158D01*
X0520525Y0462098D01*
X0520490Y0462036D01*
X0520458Y0461972D01*
X0520430Y0461907D01*
X0520406Y0461841D01*
X0520385Y0461773D01*
X0520368Y0461704D01*
X0520354Y0461634D01*
X0520345Y0461564D01*
X0520339Y0461493D01*
X0520337Y0461422D01*
X0518251Y0462078D02*
X0518251Y0462733D01*
X0516284Y0462733D01*
X0516284Y0458800D01*
X0513318Y0460111D02*
X0513318Y0461422D01*
X0513316Y0461493D01*
X0513310Y0461564D01*
X0513301Y0461634D01*
X0513287Y0461704D01*
X0513270Y0461773D01*
X0513249Y0461841D01*
X0513225Y0461907D01*
X0513197Y0461972D01*
X0513165Y0462036D01*
X0513130Y0462098D01*
X0513092Y0462158D01*
X0513051Y0462215D01*
X0513006Y0462271D01*
X0512959Y0462324D01*
X0512909Y0462374D01*
X0512856Y0462421D01*
X0512800Y0462466D01*
X0512743Y0462507D01*
X0512683Y0462545D01*
X0512621Y0462580D01*
X0512557Y0462612D01*
X0512492Y0462640D01*
X0512426Y0462664D01*
X0512358Y0462685D01*
X0512289Y0462702D01*
X0512219Y0462716D01*
X0512149Y0462725D01*
X0512078Y0462731D01*
X0512007Y0462733D01*
X0511936Y0462731D01*
X0511865Y0462725D01*
X0511795Y0462716D01*
X0511725Y0462702D01*
X0511656Y0462685D01*
X0511588Y0462664D01*
X0511522Y0462640D01*
X0511457Y0462612D01*
X0511393Y0462580D01*
X0511331Y0462545D01*
X0511271Y0462507D01*
X0511214Y0462466D01*
X0511158Y0462421D01*
X0511105Y0462374D01*
X0511055Y0462324D01*
X0511008Y0462271D01*
X0510963Y0462215D01*
X0510922Y0462158D01*
X0510884Y0462098D01*
X0510849Y0462036D01*
X0510817Y0461972D01*
X0510789Y0461907D01*
X0510765Y0461841D01*
X0510744Y0461773D01*
X0510727Y0461704D01*
X0510713Y0461634D01*
X0510704Y0461564D01*
X0510698Y0461493D01*
X0510696Y0461422D01*
X0510695Y0461422D02*
X0510695Y0460111D01*
X0510696Y0460111D02*
X0510698Y0460040D01*
X0510704Y0459969D01*
X0510713Y0459899D01*
X0510727Y0459829D01*
X0510744Y0459760D01*
X0510765Y0459692D01*
X0510789Y0459626D01*
X0510817Y0459561D01*
X0510849Y0459497D01*
X0510884Y0459435D01*
X0510922Y0459375D01*
X0510963Y0459318D01*
X0511008Y0459262D01*
X0511055Y0459209D01*
X0511105Y0459159D01*
X0511158Y0459112D01*
X0511214Y0459067D01*
X0511271Y0459026D01*
X0511331Y0458988D01*
X0511393Y0458953D01*
X0511457Y0458921D01*
X0511522Y0458893D01*
X0511588Y0458869D01*
X0511656Y0458848D01*
X0511725Y0458831D01*
X0511795Y0458817D01*
X0511865Y0458808D01*
X0511936Y0458802D01*
X0512007Y0458800D01*
X0512078Y0458802D01*
X0512149Y0458808D01*
X0512219Y0458817D01*
X0512289Y0458831D01*
X0512358Y0458848D01*
X0512426Y0458869D01*
X0512492Y0458893D01*
X0512557Y0458921D01*
X0512621Y0458953D01*
X0512683Y0458988D01*
X0512743Y0459026D01*
X0512800Y0459067D01*
X0512856Y0459112D01*
X0512909Y0459159D01*
X0512959Y0459209D01*
X0513006Y0459262D01*
X0513051Y0459318D01*
X0513092Y0459375D01*
X0513130Y0459435D01*
X0513165Y0459497D01*
X0513197Y0459561D01*
X0513225Y0459626D01*
X0513249Y0459692D01*
X0513270Y0459760D01*
X0513287Y0459829D01*
X0513301Y0459899D01*
X0513310Y0459969D01*
X0513316Y0460040D01*
X0513318Y0460111D01*
X0508282Y0458800D02*
X0506971Y0458800D01*
X0506909Y0458802D01*
X0506848Y0458808D01*
X0506787Y0458817D01*
X0506727Y0458831D01*
X0506667Y0458848D01*
X0506609Y0458869D01*
X0506552Y0458894D01*
X0506497Y0458922D01*
X0506444Y0458953D01*
X0506393Y0458988D01*
X0506344Y0459026D01*
X0506298Y0459066D01*
X0506254Y0459110D01*
X0506214Y0459156D01*
X0506176Y0459205D01*
X0506141Y0459256D01*
X0506110Y0459309D01*
X0506082Y0459364D01*
X0506057Y0459421D01*
X0506036Y0459479D01*
X0506019Y0459539D01*
X0506005Y0459599D01*
X0505996Y0459660D01*
X0505990Y0459721D01*
X0505988Y0459783D01*
X0505988Y0461750D01*
X0505990Y0461812D01*
X0505996Y0461873D01*
X0506005Y0461934D01*
X0506019Y0461994D01*
X0506036Y0462054D01*
X0506057Y0462112D01*
X0506082Y0462169D01*
X0506110Y0462224D01*
X0506141Y0462277D01*
X0506176Y0462328D01*
X0506214Y0462377D01*
X0506254Y0462423D01*
X0506298Y0462467D01*
X0506344Y0462507D01*
X0506393Y0462545D01*
X0506444Y0462580D01*
X0506497Y0462611D01*
X0506552Y0462639D01*
X0506609Y0462664D01*
X0506667Y0462685D01*
X0506727Y0462702D01*
X0506787Y0462716D01*
X0506848Y0462725D01*
X0506909Y0462731D01*
X0506971Y0462733D01*
X0508282Y0462733D01*
X0502774Y0460439D02*
X0501136Y0461094D01*
X0501135Y0461095D02*
X0501083Y0461118D01*
X0501032Y0461145D01*
X0500983Y0461175D01*
X0500936Y0461208D01*
X0500891Y0461244D01*
X0500849Y0461284D01*
X0500810Y0461326D01*
X0500774Y0461370D01*
X0500741Y0461417D01*
X0500711Y0461467D01*
X0500684Y0461518D01*
X0500661Y0461570D01*
X0500642Y0461624D01*
X0500626Y0461680D01*
X0500614Y0461736D01*
X0500606Y0461793D01*
X0500602Y0461850D01*
X0500601Y0461908D01*
X0500605Y0461965D01*
X0500612Y0462022D01*
X0500624Y0462079D01*
X0500639Y0462134D01*
X0500657Y0462189D01*
X0500680Y0462242D01*
X0500706Y0462293D01*
X0500735Y0462342D01*
X0500768Y0462390D01*
X0500804Y0462435D01*
X0500842Y0462477D01*
X0500884Y0462517D01*
X0500928Y0462554D01*
X0500975Y0462588D01*
X0501023Y0462619D01*
X0501074Y0462646D01*
X0501126Y0462670D01*
X0501180Y0462690D01*
X0501235Y0462706D01*
X0501291Y0462719D01*
X0501348Y0462728D01*
X0501406Y0462733D01*
X0501463Y0462734D01*
X0500644Y0459128D02*
X0500778Y0459082D01*
X0500913Y0459039D01*
X0501049Y0459000D01*
X0501186Y0458964D01*
X0501323Y0458932D01*
X0501462Y0458903D01*
X0501601Y0458877D01*
X0501741Y0458856D01*
X0501882Y0458837D01*
X0502022Y0458823D01*
X0502164Y0458812D01*
X0502305Y0458804D01*
X0502447Y0458801D01*
X0502447Y0458800D02*
X0502504Y0458801D01*
X0502562Y0458806D01*
X0502619Y0458815D01*
X0502675Y0458828D01*
X0502730Y0458844D01*
X0502784Y0458864D01*
X0502836Y0458888D01*
X0502887Y0458915D01*
X0502935Y0458946D01*
X0502982Y0458980D01*
X0503026Y0459017D01*
X0503068Y0459057D01*
X0503106Y0459099D01*
X0503142Y0459144D01*
X0503175Y0459192D01*
X0503204Y0459241D01*
X0503230Y0459292D01*
X0503253Y0459345D01*
X0503271Y0459400D01*
X0503286Y0459455D01*
X0503298Y0459512D01*
X0503305Y0459569D01*
X0503309Y0459626D01*
X0503308Y0459684D01*
X0503304Y0459741D01*
X0503296Y0459798D01*
X0503284Y0459854D01*
X0503268Y0459910D01*
X0503249Y0459964D01*
X0503226Y0460016D01*
X0503199Y0460067D01*
X0503169Y0460117D01*
X0503136Y0460164D01*
X0503100Y0460208D01*
X0503061Y0460250D01*
X0503019Y0460290D01*
X0502974Y0460326D01*
X0502927Y0460359D01*
X0502878Y0460389D01*
X0502827Y0460416D01*
X0502775Y0460439D01*
X0502938Y0462405D02*
X0502831Y0462451D01*
X0502722Y0462494D01*
X0502612Y0462534D01*
X0502500Y0462570D01*
X0502388Y0462602D01*
X0502274Y0462631D01*
X0502160Y0462657D01*
X0502045Y0462678D01*
X0501930Y0462697D01*
X0501813Y0462711D01*
X0501697Y0462722D01*
X0501580Y0462729D01*
X0501463Y0462733D01*
X0497768Y0461094D02*
X0493834Y0461094D01*
X0491163Y0462733D02*
X0489852Y0458800D01*
X0488541Y0462733D01*
X0441959Y0518800D02*
X0440320Y0518800D01*
X0440258Y0518802D01*
X0440197Y0518808D01*
X0440136Y0518817D01*
X0440076Y0518831D01*
X0440016Y0518848D01*
X0439958Y0518869D01*
X0439901Y0518894D01*
X0439846Y0518922D01*
X0439793Y0518953D01*
X0439742Y0518988D01*
X0439693Y0519026D01*
X0439647Y0519066D01*
X0439603Y0519110D01*
X0439563Y0519156D01*
X0439525Y0519205D01*
X0439490Y0519256D01*
X0439459Y0519309D01*
X0439431Y0519364D01*
X0439406Y0519421D01*
X0439385Y0519479D01*
X0439368Y0519539D01*
X0439354Y0519599D01*
X0439345Y0519660D01*
X0439339Y0519721D01*
X0439337Y0519783D01*
X0439337Y0521422D01*
X0439337Y0520767D02*
X0441959Y0520767D01*
X0441959Y0521422D01*
X0441957Y0521493D01*
X0441951Y0521564D01*
X0441942Y0521634D01*
X0441928Y0521704D01*
X0441911Y0521773D01*
X0441890Y0521841D01*
X0441866Y0521907D01*
X0441838Y0521972D01*
X0441806Y0522036D01*
X0441771Y0522098D01*
X0441733Y0522158D01*
X0441692Y0522215D01*
X0441647Y0522271D01*
X0441600Y0522324D01*
X0441550Y0522374D01*
X0441497Y0522421D01*
X0441441Y0522466D01*
X0441384Y0522507D01*
X0441324Y0522545D01*
X0441262Y0522580D01*
X0441198Y0522612D01*
X0441133Y0522640D01*
X0441067Y0522664D01*
X0440999Y0522685D01*
X0440930Y0522702D01*
X0440860Y0522716D01*
X0440790Y0522725D01*
X0440719Y0522731D01*
X0440648Y0522733D01*
X0440577Y0522731D01*
X0440506Y0522725D01*
X0440436Y0522716D01*
X0440366Y0522702D01*
X0440297Y0522685D01*
X0440229Y0522664D01*
X0440163Y0522640D01*
X0440098Y0522612D01*
X0440034Y0522580D01*
X0439972Y0522545D01*
X0439912Y0522507D01*
X0439855Y0522466D01*
X0439799Y0522421D01*
X0439746Y0522374D01*
X0439696Y0522324D01*
X0439649Y0522271D01*
X0439604Y0522215D01*
X0439563Y0522158D01*
X0439525Y0522098D01*
X0439490Y0522036D01*
X0439458Y0521972D01*
X0439430Y0521907D01*
X0439406Y0521841D01*
X0439385Y0521773D01*
X0439368Y0521704D01*
X0439354Y0521634D01*
X0439345Y0521564D01*
X0439339Y0521493D01*
X0439337Y0521422D01*
X0437251Y0522078D02*
X0437251Y0522733D01*
X0435284Y0522733D01*
X0435284Y0518800D01*
X0432318Y0520111D02*
X0432318Y0521422D01*
X0432316Y0521493D01*
X0432310Y0521564D01*
X0432301Y0521634D01*
X0432287Y0521704D01*
X0432270Y0521773D01*
X0432249Y0521841D01*
X0432225Y0521907D01*
X0432197Y0521972D01*
X0432165Y0522036D01*
X0432130Y0522098D01*
X0432092Y0522158D01*
X0432051Y0522215D01*
X0432006Y0522271D01*
X0431959Y0522324D01*
X0431909Y0522374D01*
X0431856Y0522421D01*
X0431800Y0522466D01*
X0431743Y0522507D01*
X0431683Y0522545D01*
X0431621Y0522580D01*
X0431557Y0522612D01*
X0431492Y0522640D01*
X0431426Y0522664D01*
X0431358Y0522685D01*
X0431289Y0522702D01*
X0431219Y0522716D01*
X0431149Y0522725D01*
X0431078Y0522731D01*
X0431007Y0522733D01*
X0430936Y0522731D01*
X0430865Y0522725D01*
X0430795Y0522716D01*
X0430725Y0522702D01*
X0430656Y0522685D01*
X0430588Y0522664D01*
X0430522Y0522640D01*
X0430457Y0522612D01*
X0430393Y0522580D01*
X0430331Y0522545D01*
X0430271Y0522507D01*
X0430214Y0522466D01*
X0430158Y0522421D01*
X0430105Y0522374D01*
X0430055Y0522324D01*
X0430008Y0522271D01*
X0429963Y0522215D01*
X0429922Y0522158D01*
X0429884Y0522098D01*
X0429849Y0522036D01*
X0429817Y0521972D01*
X0429789Y0521907D01*
X0429765Y0521841D01*
X0429744Y0521773D01*
X0429727Y0521704D01*
X0429713Y0521634D01*
X0429704Y0521564D01*
X0429698Y0521493D01*
X0429696Y0521422D01*
X0429695Y0521422D02*
X0429695Y0520111D01*
X0429696Y0520111D02*
X0429698Y0520040D01*
X0429704Y0519969D01*
X0429713Y0519899D01*
X0429727Y0519829D01*
X0429744Y0519760D01*
X0429765Y0519692D01*
X0429789Y0519626D01*
X0429817Y0519561D01*
X0429849Y0519497D01*
X0429884Y0519435D01*
X0429922Y0519375D01*
X0429963Y0519318D01*
X0430008Y0519262D01*
X0430055Y0519209D01*
X0430105Y0519159D01*
X0430158Y0519112D01*
X0430214Y0519067D01*
X0430271Y0519026D01*
X0430331Y0518988D01*
X0430393Y0518953D01*
X0430457Y0518921D01*
X0430522Y0518893D01*
X0430588Y0518869D01*
X0430656Y0518848D01*
X0430725Y0518831D01*
X0430795Y0518817D01*
X0430865Y0518808D01*
X0430936Y0518802D01*
X0431007Y0518800D01*
X0431078Y0518802D01*
X0431149Y0518808D01*
X0431219Y0518817D01*
X0431289Y0518831D01*
X0431358Y0518848D01*
X0431426Y0518869D01*
X0431492Y0518893D01*
X0431557Y0518921D01*
X0431621Y0518953D01*
X0431683Y0518988D01*
X0431743Y0519026D01*
X0431800Y0519067D01*
X0431856Y0519112D01*
X0431909Y0519159D01*
X0431959Y0519209D01*
X0432006Y0519262D01*
X0432051Y0519318D01*
X0432092Y0519375D01*
X0432130Y0519435D01*
X0432165Y0519497D01*
X0432197Y0519561D01*
X0432225Y0519626D01*
X0432249Y0519692D01*
X0432270Y0519760D01*
X0432287Y0519829D01*
X0432301Y0519899D01*
X0432310Y0519969D01*
X0432316Y0520040D01*
X0432318Y0520111D01*
X0427282Y0518800D02*
X0425971Y0518800D01*
X0425909Y0518802D01*
X0425848Y0518808D01*
X0425787Y0518817D01*
X0425727Y0518831D01*
X0425667Y0518848D01*
X0425609Y0518869D01*
X0425552Y0518894D01*
X0425497Y0518922D01*
X0425444Y0518953D01*
X0425393Y0518988D01*
X0425344Y0519026D01*
X0425298Y0519066D01*
X0425254Y0519110D01*
X0425214Y0519156D01*
X0425176Y0519205D01*
X0425141Y0519256D01*
X0425110Y0519309D01*
X0425082Y0519364D01*
X0425057Y0519421D01*
X0425036Y0519479D01*
X0425019Y0519539D01*
X0425005Y0519599D01*
X0424996Y0519660D01*
X0424990Y0519721D01*
X0424988Y0519783D01*
X0424988Y0521750D01*
X0424990Y0521812D01*
X0424996Y0521873D01*
X0425005Y0521934D01*
X0425019Y0521994D01*
X0425036Y0522054D01*
X0425057Y0522112D01*
X0425082Y0522169D01*
X0425110Y0522224D01*
X0425141Y0522277D01*
X0425176Y0522328D01*
X0425214Y0522377D01*
X0425254Y0522423D01*
X0425298Y0522467D01*
X0425344Y0522507D01*
X0425393Y0522545D01*
X0425444Y0522580D01*
X0425497Y0522611D01*
X0425552Y0522639D01*
X0425609Y0522664D01*
X0425667Y0522685D01*
X0425727Y0522702D01*
X0425787Y0522716D01*
X0425848Y0522725D01*
X0425909Y0522731D01*
X0425971Y0522733D01*
X0427282Y0522733D01*
X0421774Y0520439D02*
X0420136Y0521094D01*
X0420135Y0521095D02*
X0420083Y0521118D01*
X0420032Y0521145D01*
X0419983Y0521175D01*
X0419936Y0521208D01*
X0419891Y0521244D01*
X0419849Y0521284D01*
X0419810Y0521326D01*
X0419774Y0521370D01*
X0419741Y0521417D01*
X0419711Y0521467D01*
X0419684Y0521518D01*
X0419661Y0521570D01*
X0419642Y0521624D01*
X0419626Y0521680D01*
X0419614Y0521736D01*
X0419606Y0521793D01*
X0419602Y0521850D01*
X0419601Y0521908D01*
X0419605Y0521965D01*
X0419612Y0522022D01*
X0419624Y0522079D01*
X0419639Y0522134D01*
X0419657Y0522189D01*
X0419680Y0522242D01*
X0419706Y0522293D01*
X0419735Y0522342D01*
X0419768Y0522390D01*
X0419804Y0522435D01*
X0419842Y0522477D01*
X0419884Y0522517D01*
X0419928Y0522554D01*
X0419975Y0522588D01*
X0420023Y0522619D01*
X0420074Y0522646D01*
X0420126Y0522670D01*
X0420180Y0522690D01*
X0420235Y0522706D01*
X0420291Y0522719D01*
X0420348Y0522728D01*
X0420406Y0522733D01*
X0420463Y0522734D01*
X0419644Y0519128D02*
X0419778Y0519082D01*
X0419913Y0519039D01*
X0420049Y0519000D01*
X0420186Y0518964D01*
X0420323Y0518932D01*
X0420462Y0518903D01*
X0420601Y0518877D01*
X0420741Y0518856D01*
X0420882Y0518837D01*
X0421022Y0518823D01*
X0421164Y0518812D01*
X0421305Y0518804D01*
X0421447Y0518801D01*
X0421447Y0518800D02*
X0421504Y0518801D01*
X0421562Y0518806D01*
X0421619Y0518815D01*
X0421675Y0518828D01*
X0421730Y0518844D01*
X0421784Y0518864D01*
X0421836Y0518888D01*
X0421887Y0518915D01*
X0421935Y0518946D01*
X0421982Y0518980D01*
X0422026Y0519017D01*
X0422068Y0519057D01*
X0422106Y0519099D01*
X0422142Y0519144D01*
X0422175Y0519192D01*
X0422204Y0519241D01*
X0422230Y0519292D01*
X0422253Y0519345D01*
X0422271Y0519400D01*
X0422286Y0519455D01*
X0422298Y0519512D01*
X0422305Y0519569D01*
X0422309Y0519626D01*
X0422308Y0519684D01*
X0422304Y0519741D01*
X0422296Y0519798D01*
X0422284Y0519854D01*
X0422268Y0519910D01*
X0422249Y0519964D01*
X0422226Y0520016D01*
X0422199Y0520067D01*
X0422169Y0520117D01*
X0422136Y0520164D01*
X0422100Y0520208D01*
X0422061Y0520250D01*
X0422019Y0520290D01*
X0421974Y0520326D01*
X0421927Y0520359D01*
X0421878Y0520389D01*
X0421827Y0520416D01*
X0421775Y0520439D01*
X0421938Y0522405D02*
X0421831Y0522451D01*
X0421722Y0522494D01*
X0421612Y0522534D01*
X0421500Y0522570D01*
X0421388Y0522602D01*
X0421274Y0522631D01*
X0421160Y0522657D01*
X0421045Y0522678D01*
X0420930Y0522697D01*
X0420813Y0522711D01*
X0420697Y0522722D01*
X0420580Y0522729D01*
X0420463Y0522733D01*
X0416768Y0521094D02*
X0412834Y0521094D01*
X0410163Y0522733D02*
X0408852Y0518800D01*
X0407541Y0522733D01*
X0044959Y0521422D02*
X0044959Y0520767D01*
X0042337Y0520767D01*
X0042337Y0521422D02*
X0042337Y0519783D01*
X0042339Y0519721D01*
X0042345Y0519660D01*
X0042354Y0519599D01*
X0042368Y0519539D01*
X0042385Y0519479D01*
X0042406Y0519421D01*
X0042431Y0519364D01*
X0042459Y0519309D01*
X0042490Y0519256D01*
X0042525Y0519205D01*
X0042563Y0519156D01*
X0042603Y0519110D01*
X0042647Y0519066D01*
X0042693Y0519026D01*
X0042742Y0518988D01*
X0042793Y0518953D01*
X0042846Y0518922D01*
X0042901Y0518894D01*
X0042958Y0518869D01*
X0043016Y0518848D01*
X0043076Y0518831D01*
X0043136Y0518817D01*
X0043197Y0518808D01*
X0043258Y0518802D01*
X0043320Y0518800D01*
X0044959Y0518800D01*
X0044959Y0521422D02*
X0044957Y0521493D01*
X0044951Y0521564D01*
X0044942Y0521634D01*
X0044928Y0521704D01*
X0044911Y0521773D01*
X0044890Y0521841D01*
X0044866Y0521907D01*
X0044838Y0521972D01*
X0044806Y0522036D01*
X0044771Y0522098D01*
X0044733Y0522158D01*
X0044692Y0522215D01*
X0044647Y0522271D01*
X0044600Y0522324D01*
X0044550Y0522374D01*
X0044497Y0522421D01*
X0044441Y0522466D01*
X0044384Y0522507D01*
X0044324Y0522545D01*
X0044262Y0522580D01*
X0044198Y0522612D01*
X0044133Y0522640D01*
X0044067Y0522664D01*
X0043999Y0522685D01*
X0043930Y0522702D01*
X0043860Y0522716D01*
X0043790Y0522725D01*
X0043719Y0522731D01*
X0043648Y0522733D01*
X0043577Y0522731D01*
X0043506Y0522725D01*
X0043436Y0522716D01*
X0043366Y0522702D01*
X0043297Y0522685D01*
X0043229Y0522664D01*
X0043163Y0522640D01*
X0043098Y0522612D01*
X0043034Y0522580D01*
X0042972Y0522545D01*
X0042912Y0522507D01*
X0042855Y0522466D01*
X0042799Y0522421D01*
X0042746Y0522374D01*
X0042696Y0522324D01*
X0042649Y0522271D01*
X0042604Y0522215D01*
X0042563Y0522158D01*
X0042525Y0522098D01*
X0042490Y0522036D01*
X0042458Y0521972D01*
X0042430Y0521907D01*
X0042406Y0521841D01*
X0042385Y0521773D01*
X0042368Y0521704D01*
X0042354Y0521634D01*
X0042345Y0521564D01*
X0042339Y0521493D01*
X0042337Y0521422D01*
X0040251Y0522078D02*
X0040251Y0522733D01*
X0038284Y0522733D01*
X0038284Y0518800D01*
X0035318Y0520111D02*
X0035318Y0521422D01*
X0035316Y0521493D01*
X0035310Y0521564D01*
X0035301Y0521634D01*
X0035287Y0521704D01*
X0035270Y0521773D01*
X0035249Y0521841D01*
X0035225Y0521907D01*
X0035197Y0521972D01*
X0035165Y0522036D01*
X0035130Y0522098D01*
X0035092Y0522158D01*
X0035051Y0522215D01*
X0035006Y0522271D01*
X0034959Y0522324D01*
X0034909Y0522374D01*
X0034856Y0522421D01*
X0034800Y0522466D01*
X0034743Y0522507D01*
X0034683Y0522545D01*
X0034621Y0522580D01*
X0034557Y0522612D01*
X0034492Y0522640D01*
X0034426Y0522664D01*
X0034358Y0522685D01*
X0034289Y0522702D01*
X0034219Y0522716D01*
X0034149Y0522725D01*
X0034078Y0522731D01*
X0034007Y0522733D01*
X0033936Y0522731D01*
X0033865Y0522725D01*
X0033795Y0522716D01*
X0033725Y0522702D01*
X0033656Y0522685D01*
X0033588Y0522664D01*
X0033522Y0522640D01*
X0033457Y0522612D01*
X0033393Y0522580D01*
X0033331Y0522545D01*
X0033271Y0522507D01*
X0033214Y0522466D01*
X0033158Y0522421D01*
X0033105Y0522374D01*
X0033055Y0522324D01*
X0033008Y0522271D01*
X0032963Y0522215D01*
X0032922Y0522158D01*
X0032884Y0522098D01*
X0032849Y0522036D01*
X0032817Y0521972D01*
X0032789Y0521907D01*
X0032765Y0521841D01*
X0032744Y0521773D01*
X0032727Y0521704D01*
X0032713Y0521634D01*
X0032704Y0521564D01*
X0032698Y0521493D01*
X0032696Y0521422D01*
X0032695Y0521422D02*
X0032695Y0520111D01*
X0032696Y0520111D02*
X0032698Y0520040D01*
X0032704Y0519969D01*
X0032713Y0519899D01*
X0032727Y0519829D01*
X0032744Y0519760D01*
X0032765Y0519692D01*
X0032789Y0519626D01*
X0032817Y0519561D01*
X0032849Y0519497D01*
X0032884Y0519435D01*
X0032922Y0519375D01*
X0032963Y0519318D01*
X0033008Y0519262D01*
X0033055Y0519209D01*
X0033105Y0519159D01*
X0033158Y0519112D01*
X0033214Y0519067D01*
X0033271Y0519026D01*
X0033331Y0518988D01*
X0033393Y0518953D01*
X0033457Y0518921D01*
X0033522Y0518893D01*
X0033588Y0518869D01*
X0033656Y0518848D01*
X0033725Y0518831D01*
X0033795Y0518817D01*
X0033865Y0518808D01*
X0033936Y0518802D01*
X0034007Y0518800D01*
X0034078Y0518802D01*
X0034149Y0518808D01*
X0034219Y0518817D01*
X0034289Y0518831D01*
X0034358Y0518848D01*
X0034426Y0518869D01*
X0034492Y0518893D01*
X0034557Y0518921D01*
X0034621Y0518953D01*
X0034683Y0518988D01*
X0034743Y0519026D01*
X0034800Y0519067D01*
X0034856Y0519112D01*
X0034909Y0519159D01*
X0034959Y0519209D01*
X0035006Y0519262D01*
X0035051Y0519318D01*
X0035092Y0519375D01*
X0035130Y0519435D01*
X0035165Y0519497D01*
X0035197Y0519561D01*
X0035225Y0519626D01*
X0035249Y0519692D01*
X0035270Y0519760D01*
X0035287Y0519829D01*
X0035301Y0519899D01*
X0035310Y0519969D01*
X0035316Y0520040D01*
X0035318Y0520111D01*
X0030282Y0518800D02*
X0028971Y0518800D01*
X0028909Y0518802D01*
X0028848Y0518808D01*
X0028787Y0518817D01*
X0028727Y0518831D01*
X0028667Y0518848D01*
X0028609Y0518869D01*
X0028552Y0518894D01*
X0028497Y0518922D01*
X0028444Y0518953D01*
X0028393Y0518988D01*
X0028344Y0519026D01*
X0028298Y0519066D01*
X0028254Y0519110D01*
X0028214Y0519156D01*
X0028176Y0519205D01*
X0028141Y0519256D01*
X0028110Y0519309D01*
X0028082Y0519364D01*
X0028057Y0519421D01*
X0028036Y0519479D01*
X0028019Y0519539D01*
X0028005Y0519599D01*
X0027996Y0519660D01*
X0027990Y0519721D01*
X0027988Y0519783D01*
X0027988Y0521750D01*
X0027990Y0521812D01*
X0027996Y0521873D01*
X0028005Y0521934D01*
X0028019Y0521994D01*
X0028036Y0522054D01*
X0028057Y0522112D01*
X0028082Y0522169D01*
X0028110Y0522224D01*
X0028141Y0522277D01*
X0028176Y0522328D01*
X0028214Y0522377D01*
X0028254Y0522423D01*
X0028298Y0522467D01*
X0028344Y0522507D01*
X0028393Y0522545D01*
X0028444Y0522580D01*
X0028497Y0522611D01*
X0028552Y0522639D01*
X0028609Y0522664D01*
X0028667Y0522685D01*
X0028727Y0522702D01*
X0028787Y0522716D01*
X0028848Y0522725D01*
X0028909Y0522731D01*
X0028971Y0522733D01*
X0030282Y0522733D01*
X0024774Y0520439D02*
X0023136Y0521094D01*
X0023135Y0521095D02*
X0023083Y0521118D01*
X0023032Y0521145D01*
X0022983Y0521175D01*
X0022936Y0521208D01*
X0022891Y0521244D01*
X0022849Y0521284D01*
X0022810Y0521326D01*
X0022774Y0521370D01*
X0022741Y0521417D01*
X0022711Y0521467D01*
X0022684Y0521518D01*
X0022661Y0521570D01*
X0022642Y0521624D01*
X0022626Y0521680D01*
X0022614Y0521736D01*
X0022606Y0521793D01*
X0022602Y0521850D01*
X0022601Y0521908D01*
X0022605Y0521965D01*
X0022612Y0522022D01*
X0022624Y0522079D01*
X0022639Y0522134D01*
X0022657Y0522189D01*
X0022680Y0522242D01*
X0022706Y0522293D01*
X0022735Y0522342D01*
X0022768Y0522390D01*
X0022804Y0522435D01*
X0022842Y0522477D01*
X0022884Y0522517D01*
X0022928Y0522554D01*
X0022975Y0522588D01*
X0023023Y0522619D01*
X0023074Y0522646D01*
X0023126Y0522670D01*
X0023180Y0522690D01*
X0023235Y0522706D01*
X0023291Y0522719D01*
X0023348Y0522728D01*
X0023406Y0522733D01*
X0023463Y0522734D01*
X0022644Y0519128D02*
X0022778Y0519082D01*
X0022913Y0519039D01*
X0023049Y0519000D01*
X0023186Y0518964D01*
X0023323Y0518932D01*
X0023462Y0518903D01*
X0023601Y0518877D01*
X0023741Y0518856D01*
X0023882Y0518837D01*
X0024022Y0518823D01*
X0024164Y0518812D01*
X0024305Y0518804D01*
X0024447Y0518801D01*
X0024447Y0518800D02*
X0024504Y0518801D01*
X0024562Y0518806D01*
X0024619Y0518815D01*
X0024675Y0518828D01*
X0024730Y0518844D01*
X0024784Y0518864D01*
X0024836Y0518888D01*
X0024887Y0518915D01*
X0024935Y0518946D01*
X0024982Y0518980D01*
X0025026Y0519017D01*
X0025068Y0519057D01*
X0025106Y0519099D01*
X0025142Y0519144D01*
X0025175Y0519192D01*
X0025204Y0519241D01*
X0025230Y0519292D01*
X0025253Y0519345D01*
X0025271Y0519400D01*
X0025286Y0519455D01*
X0025298Y0519512D01*
X0025305Y0519569D01*
X0025309Y0519626D01*
X0025308Y0519684D01*
X0025304Y0519741D01*
X0025296Y0519798D01*
X0025284Y0519854D01*
X0025268Y0519910D01*
X0025249Y0519964D01*
X0025226Y0520016D01*
X0025199Y0520067D01*
X0025169Y0520117D01*
X0025136Y0520164D01*
X0025100Y0520208D01*
X0025061Y0520250D01*
X0025019Y0520290D01*
X0024974Y0520326D01*
X0024927Y0520359D01*
X0024878Y0520389D01*
X0024827Y0520416D01*
X0024775Y0520439D01*
X0024938Y0522405D02*
X0024831Y0522451D01*
X0024722Y0522494D01*
X0024612Y0522534D01*
X0024500Y0522570D01*
X0024388Y0522602D01*
X0024274Y0522631D01*
X0024160Y0522657D01*
X0024045Y0522678D01*
X0023930Y0522697D01*
X0023813Y0522711D01*
X0023697Y0522722D01*
X0023580Y0522729D01*
X0023463Y0522733D01*
X0019768Y0521094D02*
X0015834Y0521094D01*
X0013163Y0522733D02*
X0011852Y0518800D01*
X0010541Y0522733D01*
X0488541Y0028733D02*
X0489852Y0024800D01*
X0491163Y0028733D01*
X0493834Y0027094D02*
X0497768Y0027094D01*
X0501136Y0027094D02*
X0502774Y0026439D01*
X0502775Y0026439D02*
X0502827Y0026416D01*
X0502878Y0026389D01*
X0502927Y0026359D01*
X0502974Y0026326D01*
X0503019Y0026290D01*
X0503061Y0026250D01*
X0503100Y0026208D01*
X0503136Y0026164D01*
X0503169Y0026117D01*
X0503199Y0026067D01*
X0503226Y0026016D01*
X0503249Y0025964D01*
X0503268Y0025910D01*
X0503284Y0025854D01*
X0503296Y0025798D01*
X0503304Y0025741D01*
X0503308Y0025684D01*
X0503309Y0025626D01*
X0503305Y0025569D01*
X0503298Y0025512D01*
X0503286Y0025455D01*
X0503271Y0025400D01*
X0503253Y0025345D01*
X0503230Y0025292D01*
X0503204Y0025241D01*
X0503175Y0025192D01*
X0503142Y0025144D01*
X0503106Y0025099D01*
X0503068Y0025057D01*
X0503026Y0025017D01*
X0502982Y0024980D01*
X0502935Y0024946D01*
X0502887Y0024915D01*
X0502836Y0024888D01*
X0502784Y0024864D01*
X0502730Y0024844D01*
X0502675Y0024828D01*
X0502619Y0024815D01*
X0502562Y0024806D01*
X0502504Y0024801D01*
X0502447Y0024800D01*
X0502938Y0028405D02*
X0502831Y0028451D01*
X0502722Y0028494D01*
X0502612Y0028534D01*
X0502500Y0028570D01*
X0502388Y0028602D01*
X0502274Y0028631D01*
X0502160Y0028657D01*
X0502045Y0028678D01*
X0501930Y0028697D01*
X0501813Y0028711D01*
X0501697Y0028722D01*
X0501580Y0028729D01*
X0501463Y0028733D01*
X0501463Y0028734D02*
X0501406Y0028733D01*
X0501348Y0028728D01*
X0501291Y0028719D01*
X0501235Y0028706D01*
X0501180Y0028690D01*
X0501126Y0028670D01*
X0501074Y0028646D01*
X0501023Y0028619D01*
X0500975Y0028588D01*
X0500928Y0028554D01*
X0500884Y0028517D01*
X0500842Y0028477D01*
X0500804Y0028435D01*
X0500768Y0028390D01*
X0500735Y0028342D01*
X0500706Y0028293D01*
X0500680Y0028242D01*
X0500657Y0028189D01*
X0500639Y0028134D01*
X0500624Y0028079D01*
X0500612Y0028022D01*
X0500605Y0027965D01*
X0500601Y0027908D01*
X0500602Y0027850D01*
X0500606Y0027793D01*
X0500614Y0027736D01*
X0500626Y0027680D01*
X0500642Y0027624D01*
X0500661Y0027570D01*
X0500684Y0027518D01*
X0500711Y0027467D01*
X0500741Y0027417D01*
X0500774Y0027370D01*
X0500810Y0027326D01*
X0500849Y0027284D01*
X0500891Y0027244D01*
X0500936Y0027208D01*
X0500983Y0027175D01*
X0501032Y0027145D01*
X0501083Y0027118D01*
X0501135Y0027095D01*
X0500644Y0025128D02*
X0500778Y0025082D01*
X0500913Y0025039D01*
X0501049Y0025000D01*
X0501186Y0024964D01*
X0501323Y0024932D01*
X0501462Y0024903D01*
X0501601Y0024877D01*
X0501741Y0024856D01*
X0501882Y0024837D01*
X0502022Y0024823D01*
X0502164Y0024812D01*
X0502305Y0024804D01*
X0502447Y0024801D01*
X0505988Y0025783D02*
X0505988Y0027750D01*
X0505990Y0027812D01*
X0505996Y0027873D01*
X0506005Y0027934D01*
X0506019Y0027994D01*
X0506036Y0028054D01*
X0506057Y0028112D01*
X0506082Y0028169D01*
X0506110Y0028224D01*
X0506141Y0028277D01*
X0506176Y0028328D01*
X0506214Y0028377D01*
X0506254Y0028423D01*
X0506298Y0028467D01*
X0506344Y0028507D01*
X0506393Y0028545D01*
X0506444Y0028580D01*
X0506497Y0028611D01*
X0506552Y0028639D01*
X0506609Y0028664D01*
X0506667Y0028685D01*
X0506727Y0028702D01*
X0506787Y0028716D01*
X0506848Y0028725D01*
X0506909Y0028731D01*
X0506971Y0028733D01*
X0508282Y0028733D01*
X0510695Y0027422D02*
X0510695Y0026111D01*
X0510696Y0026111D02*
X0510698Y0026040D01*
X0510704Y0025969D01*
X0510713Y0025899D01*
X0510727Y0025829D01*
X0510744Y0025760D01*
X0510765Y0025692D01*
X0510789Y0025626D01*
X0510817Y0025561D01*
X0510849Y0025497D01*
X0510884Y0025435D01*
X0510922Y0025375D01*
X0510963Y0025318D01*
X0511008Y0025262D01*
X0511055Y0025209D01*
X0511105Y0025159D01*
X0511158Y0025112D01*
X0511214Y0025067D01*
X0511271Y0025026D01*
X0511331Y0024988D01*
X0511393Y0024953D01*
X0511457Y0024921D01*
X0511522Y0024893D01*
X0511588Y0024869D01*
X0511656Y0024848D01*
X0511725Y0024831D01*
X0511795Y0024817D01*
X0511865Y0024808D01*
X0511936Y0024802D01*
X0512007Y0024800D01*
X0512078Y0024802D01*
X0512149Y0024808D01*
X0512219Y0024817D01*
X0512289Y0024831D01*
X0512358Y0024848D01*
X0512426Y0024869D01*
X0512492Y0024893D01*
X0512557Y0024921D01*
X0512621Y0024953D01*
X0512683Y0024988D01*
X0512743Y0025026D01*
X0512800Y0025067D01*
X0512856Y0025112D01*
X0512909Y0025159D01*
X0512959Y0025209D01*
X0513006Y0025262D01*
X0513051Y0025318D01*
X0513092Y0025375D01*
X0513130Y0025435D01*
X0513165Y0025497D01*
X0513197Y0025561D01*
X0513225Y0025626D01*
X0513249Y0025692D01*
X0513270Y0025760D01*
X0513287Y0025829D01*
X0513301Y0025899D01*
X0513310Y0025969D01*
X0513316Y0026040D01*
X0513318Y0026111D01*
X0513318Y0027422D01*
X0513316Y0027493D01*
X0513310Y0027564D01*
X0513301Y0027634D01*
X0513287Y0027704D01*
X0513270Y0027773D01*
X0513249Y0027841D01*
X0513225Y0027907D01*
X0513197Y0027972D01*
X0513165Y0028036D01*
X0513130Y0028098D01*
X0513092Y0028158D01*
X0513051Y0028215D01*
X0513006Y0028271D01*
X0512959Y0028324D01*
X0512909Y0028374D01*
X0512856Y0028421D01*
X0512800Y0028466D01*
X0512743Y0028507D01*
X0512683Y0028545D01*
X0512621Y0028580D01*
X0512557Y0028612D01*
X0512492Y0028640D01*
X0512426Y0028664D01*
X0512358Y0028685D01*
X0512289Y0028702D01*
X0512219Y0028716D01*
X0512149Y0028725D01*
X0512078Y0028731D01*
X0512007Y0028733D01*
X0511936Y0028731D01*
X0511865Y0028725D01*
X0511795Y0028716D01*
X0511725Y0028702D01*
X0511656Y0028685D01*
X0511588Y0028664D01*
X0511522Y0028640D01*
X0511457Y0028612D01*
X0511393Y0028580D01*
X0511331Y0028545D01*
X0511271Y0028507D01*
X0511214Y0028466D01*
X0511158Y0028421D01*
X0511105Y0028374D01*
X0511055Y0028324D01*
X0511008Y0028271D01*
X0510963Y0028215D01*
X0510922Y0028158D01*
X0510884Y0028098D01*
X0510849Y0028036D01*
X0510817Y0027972D01*
X0510789Y0027907D01*
X0510765Y0027841D01*
X0510744Y0027773D01*
X0510727Y0027704D01*
X0510713Y0027634D01*
X0510704Y0027564D01*
X0510698Y0027493D01*
X0510696Y0027422D01*
X0508282Y0024800D02*
X0506971Y0024800D01*
X0506909Y0024802D01*
X0506848Y0024808D01*
X0506787Y0024817D01*
X0506727Y0024831D01*
X0506667Y0024848D01*
X0506609Y0024869D01*
X0506552Y0024894D01*
X0506497Y0024922D01*
X0506444Y0024953D01*
X0506393Y0024988D01*
X0506344Y0025026D01*
X0506298Y0025066D01*
X0506254Y0025110D01*
X0506214Y0025156D01*
X0506176Y0025205D01*
X0506141Y0025256D01*
X0506110Y0025309D01*
X0506082Y0025364D01*
X0506057Y0025421D01*
X0506036Y0025479D01*
X0506019Y0025539D01*
X0506005Y0025599D01*
X0505996Y0025660D01*
X0505990Y0025721D01*
X0505988Y0025783D01*
X0516284Y0024800D02*
X0516284Y0028733D01*
X0518251Y0028733D01*
X0518251Y0028078D01*
X0520337Y0027422D02*
X0520337Y0025783D01*
X0520339Y0025721D01*
X0520345Y0025660D01*
X0520354Y0025599D01*
X0520368Y0025539D01*
X0520385Y0025479D01*
X0520406Y0025421D01*
X0520431Y0025364D01*
X0520459Y0025309D01*
X0520490Y0025256D01*
X0520525Y0025205D01*
X0520563Y0025156D01*
X0520603Y0025110D01*
X0520647Y0025066D01*
X0520693Y0025026D01*
X0520742Y0024988D01*
X0520793Y0024953D01*
X0520846Y0024922D01*
X0520901Y0024894D01*
X0520958Y0024869D01*
X0521016Y0024848D01*
X0521076Y0024831D01*
X0521136Y0024817D01*
X0521197Y0024808D01*
X0521258Y0024802D01*
X0521320Y0024800D01*
X0522959Y0024800D01*
X0522959Y0026767D02*
X0520337Y0026767D01*
X0520337Y0027422D02*
X0520339Y0027493D01*
X0520345Y0027564D01*
X0520354Y0027634D01*
X0520368Y0027704D01*
X0520385Y0027773D01*
X0520406Y0027841D01*
X0520430Y0027907D01*
X0520458Y0027972D01*
X0520490Y0028036D01*
X0520525Y0028098D01*
X0520563Y0028158D01*
X0520604Y0028215D01*
X0520649Y0028271D01*
X0520696Y0028324D01*
X0520746Y0028374D01*
X0520799Y0028421D01*
X0520855Y0028466D01*
X0520912Y0028507D01*
X0520972Y0028545D01*
X0521034Y0028580D01*
X0521098Y0028612D01*
X0521163Y0028640D01*
X0521229Y0028664D01*
X0521297Y0028685D01*
X0521366Y0028702D01*
X0521436Y0028716D01*
X0521506Y0028725D01*
X0521577Y0028731D01*
X0521648Y0028733D01*
X0521719Y0028731D01*
X0521790Y0028725D01*
X0521860Y0028716D01*
X0521930Y0028702D01*
X0521999Y0028685D01*
X0522067Y0028664D01*
X0522133Y0028640D01*
X0522198Y0028612D01*
X0522262Y0028580D01*
X0522324Y0028545D01*
X0522384Y0028507D01*
X0522441Y0028466D01*
X0522497Y0028421D01*
X0522550Y0028374D01*
X0522600Y0028324D01*
X0522647Y0028271D01*
X0522692Y0028215D01*
X0522733Y0028158D01*
X0522771Y0028098D01*
X0522806Y0028036D01*
X0522838Y0027972D01*
X0522866Y0027907D01*
X0522890Y0027841D01*
X0522911Y0027773D01*
X0522928Y0027704D01*
X0522942Y0027634D01*
X0522951Y0027564D01*
X0522957Y0027493D01*
X0522959Y0027422D01*
X0522959Y0026767D01*
M02*
